<?xml version="1.0" standalone="no"?>
<!DOCTYPE svg PUBLIC "-//W3C//DTD SVG 20010904//EN"
 "http://www.w3.org/TR/2001/REC-SVG-20010904/DTD/svg10.dtd">
<svg version="1.0" xmlns="http://www.w3.org/2000/svg"
 width="1010.000000pt" height="1010.000000pt" viewBox="0 0 1010.000000 1010.000000"
 preserveAspectRatio="xMidYMid meet">
<metadata>
Created by potrace 1.11, written by Peter Selinger 2001-2013
</metadata>
<g transform="translate(0.000000,1010.000000) scale(0.100000,-0.100000)"
fill="#000000" stroke="none">
<path d="M5380 9847 c-47 -41 -101 -89 -120 -106 -19 -18 -71 -64 -115 -104
-73 -66 -133 -120 -270 -246 -27 -25 -93 -84 -145 -131 -52 -47 -101 -92 -110
-100 -14 -13 -109 -100 -254 -231 -256 -231 -397 -359 -431 -391 -22 -20 -49
-45 -61 -55 -34 -29 -203 -182 -279 -253 -254 -235 -459 -488 -579 -715 -124
-235 -190 -437 -224 -685 -12 -95 -6 -428 11 -515 8 -44 13 -82 11 -84 -2 -2
-18 27 -35 65 -97 212 -122 261 -163 323 -95 143 -238 246 -396 288 -95 24
-250 22 -379 -6 l-104 -23 -76 36 c-42 19 -105 42 -141 50 -87 21 -280 16
-376 -9 -65 -16 -74 -16 -100 -2 -223 118 -274 132 -457 124 -79 -3 -149 -12
-198 -26 -73 -20 -249 -94 -249 -105 0 -3 48 -113 106 -243 59 -131 118 -263
131 -293 14 -30 36 -80 50 -110 14 -30 41 -91 60 -135 20 -44 47 -105 60 -135
14 -30 65 -145 115 -255 49 -110 97 -218 108 -240 11 -22 109 -241 220 -488
264 -589 311 -682 443 -877 171 -251 443 -514 658 -635 221 -125 428 -197 651
-229 112 -16 81 -25 -162 -51 -268 -28 -462 -132 -575 -310 -72 -115 -112
-240 -122 -385 l-6 -95 -52 -55 c-124 -130 -202 -320 -206 -499 -1 -56 -5 -64
-33 -89 -17 -15 -61 -57 -98 -94 -149 -150 -220 -398 -188 -658 l13 -102 88 7
c49 3 99 8 111 10 13 2 52 6 88 10 95 9 151 15 185 20 17 2 62 6 100 10 39 3
81 8 95 10 14 2 54 7 90 10 36 3 81 8 100 10 19 2 60 7 90 10 67 6 143 14 190
20 41 5 94 10 240 25 58 6 123 13 145 15 88 10 136 15 280 30 83 9 166 18 185
20 19 2 82 9 140 15 58 6 121 13 140 15 19 2 62 6 95 10 33 3 76 7 95 10 19 2
58 7 85 10 116 13 339 57 460 90 590 162 1047 519 1275 994 17 35 33 62 35 59
3 -3 -11 -83 -30 -178 -50 -241 -49 -366 0 -512 61 -181 222 -336 439 -424 80
-32 82 -33 116 -97 88 -162 234 -289 405 -352 66 -24 73 -31 106 -114 94 -235
310 -395 617 -456 46 -10 85 -15 87 -13 2 2 7 19 10 37 3 19 7 37 9 40 2 3 7
24 10 46 4 22 9 48 12 57 3 9 6 25 8 35 5 24 57 274 61 293 6 26 61 286 105
490 22 107 52 245 65 305 13 61 26 121 28 135 3 14 21 99 40 190 20 91 38 176
41 190 2 14 19 90 36 170 17 80 34 156 36 169 3 13 18 87 35 165 43 201 78
406 87 511 13 167 7 464 -12 585 -13 81 -21 118 -42 201 -52 210 -139 409
-252 578 -77 115 -132 181 -232 279 -69 67 -73 85 -8 40 14 -10 29 -18 32 -18
3 0 40 -20 82 -45 193 -114 324 -158 470 -157 103 1 134 6 202 28 113 38 241
123 319 212 23 26 54 62 70 80 21 24 38 33 73 37 85 10 210 57 289 108 42 27
117 91 166 142 l90 93 85 5 c240 15 462 170 614 432 25 44 46 83 46 87 0 6
-98 67 -208 130 -18 10 -104 59 -190 109 -186 106 -141 80 -437 252 -132 76
-258 149 -280 161 -22 13 -121 70 -220 128 -99 57 -200 116 -225 130 -25 14
-132 76 -238 137 -106 61 -207 120 -225 130 -17 10 -70 41 -117 68 -350 203
-646 313 -985 368 -121 20 -336 26 -475 13 -243 -22 -579 -134 -742 -250 -41
-29 -34 -5 10 32 221 192 338 323 393 437 109 228 87 456 -68 711 -37 61 -44
79 -39 106 39 186 -9 392 -139 589 -18 29 -18 38 12 157 13 48 6 222 -11 290
-33 132 -119 286 -228 404 l-63 68 -85 -75z m77 -419 c12 -37 18 -81 18 -143
-1 -83 -4 -96 -37 -165 -36 -73 -86 -133 -193 -230 -28 -25 -122 -110 -210
-190 -88 -80 -162 -147 -165 -150 -3 -3 -50 -45 -105 -94 -55 -50 -104 -95
-110 -100 -9 -10 -369 -335 -443 -401 -48 -43 -73 -88 -74 -134 -1 -74 55
-135 133 -145 65 -8 65 -7 389 288 46 42 245 223 266 241 6 6 53 48 104 95 51
47 100 92 110 100 9 8 101 92 205 185 103 94 193 173 200 178 10 5 19 -9 35
-50 59 -159 21 -326 -104 -455 -28 -29 -94 -91 -145 -138 -52 -47 -99 -90
-105 -95 -6 -6 -54 -48 -106 -95 -52 -47 -99 -90 -105 -96 -5 -6 -80 -73 -165
-150 -85 -76 -180 -162 -210 -190 -30 -28 -77 -70 -103 -94 -60 -54 -77 -86
-77 -144 0 -39 6 -51 38 -85 25 -26 50 -42 76 -46 74 -14 105 5 321 204 127
117 177 162 265 242 52 47 196 178 320 290 124 113 230 208 237 212 17 11 53
-111 53 -177 0 -67 -22 -149 -56 -210 -36 -64 -90 -118 -383 -381 -135 -121
-272 -245 -305 -276 -34 -31 -104 -95 -157 -143 -53 -47 -105 -103 -114 -123
-33 -68 2 -160 71 -189 73 -31 121 -13 222 81 40 37 75 65 78 62 3 -3 -12 -29
-34 -59 -46 -61 -138 -210 -174 -283 -62 -122 -150 -377 -164 -475 -3 -19 -7
-42 -9 -50 -41 -147 -39 -577 4 -736 15 -55 7 -58 -139 -51 -72 4 -135 9 -138
11 -4 2 -23 7 -42 10 -218 36 -442 125 -640 254 -199 129 -360 290 -485 486
-83 130 -178 352 -200 466 -34 182 -43 370 -24 515 14 100 55 266 85 343 49
124 185 379 215 402 3 3 11 15 17 26 20 38 161 207 242 289 108 110 192 188
750 690 91 82 190 171 220 199 80 74 214 195 470 427 124 111 248 224 275 251
28 26 58 48 67 48 11 0 22 -17 35 -52z m1323 -2352 c14 -3 61 -13 105 -22 111
-22 291 -78 370 -114 36 -16 68 -30 71 -30 9 0 226 -111 294 -150 36 -20 85
-49 110 -62 25 -14 200 -115 390 -226 190 -110 362 -209 382 -221 75 -41 635
-365 713 -411 44 -26 107 -62 140 -80 33 -18 84 -48 114 -67 l53 -34 -21 -23
c-76 -81 -257 -127 -376 -95 -71 18 -129 50 -808 443 -368 212 -683 390 -700
394 -90 25 -177 -43 -177 -137 0 -79 32 -112 185 -196 39 -21 86 -48 105 -60
19 -12 55 -33 80 -47 25 -14 250 -143 500 -288 250 -144 475 -274 500 -288 66
-36 67 -38 36 -71 -37 -38 -127 -85 -194 -101 -69 -16 -168 -6 -241 23 -51 21
-870 486 -1018 578 -34 22 -65 39 -67 39 -3 0 -33 17 -68 37 -106 62 -189 48
-234 -39 -20 -38 -18 -107 5 -141 10 -16 33 -39 52 -51 29 -20 400 -235 539
-314 25 -14 78 -45 118 -69 41 -24 76 -43 79 -43 3 0 17 -8 31 -18 15 -11 52
-33 82 -49 30 -17 111 -62 178 -102 68 -39 127 -71 132 -71 4 0 13 -6 19 -13
8 -11 5 -19 -12 -34 -67 -61 -188 -104 -276 -98 -120 8 -153 23 -466 204 -137
79 -270 156 -295 170 -25 14 -138 79 -250 143 -122 69 -219 119 -240 121 -71
8 -143 -42 -156 -109 -15 -83 13 -129 119 -190 37 -21 67 -41 67 -45 0 -4 -21
-1 -47 7 -211 64 -338 85 -553 89 -244 4 -377 -13 -604 -79 -118 -34 -256 -89
-353 -141 -46 -25 -88 -45 -93 -45 -5 0 -15 21 -23 48 -83 262 -94 586 -31
862 50 216 125 396 236 562 82 123 85 126 208 248 222 222 507 366 806 406 27
3 51 8 54 11 7 7 398 -3 430 -11z m-6056 -300 c116 -27 222 -130 294 -287 48
-105 204 -451 292 -649 46 -102 97 -216 115 -255 17 -38 76 -168 130 -288 108
-239 121 -256 200 -265 56 -6 126 32 145 79 27 64 15 106 -98 349 -17 36 -78
173 -137 305 -110 247 -130 291 -173 385 -94 207 -225 498 -229 512 -10 35
125 36 225 1 107 -36 189 -119 257 -261 25 -51 45 -94 45 -96 0 -2 20 -46 43
-98 24 -51 77 -167 117 -258 40 -91 92 -207 116 -258 24 -51 44 -95 44 -97 0
-3 15 -38 33 -77 19 -40 55 -120 81 -178 64 -144 90 -171 166 -175 64 -4 118
35 140 99 20 62 9 98 -132 406 -17 36 -68 148 -113 250 -46 102 -122 273 -170
380 -48 107 -97 215 -110 240 -12 25 -26 56 -30 69 l-7 24 91 -5 c109 -7 189
-41 259 -110 61 -60 96 -124 211 -381 54 -122 113 -252 130 -289 17 -37 41
-93 55 -125 13 -32 42 -96 64 -143 21 -47 54 -119 72 -160 42 -97 66 -129 106
-146 64 -27 123 -13 173 40 34 36 39 106 13 171 -11 28 -28 68 -36 90 -20 47
-20 48 83 -84 118 -151 348 -350 523 -452 126 -74 377 -179 488 -204 8 -2 53
-12 100 -23 47 -11 119 -25 160 -31 41 -7 75 -13 77 -15 6 -6 -46 -147 -84
-228 -84 -178 -190 -325 -343 -479 -242 -243 -560 -405 -911 -464 -83 -14
-356 -14 -424 -1 -192 38 -302 74 -437 142 -112 55 -224 128 -294 189 -167
145 -271 263 -390 440 -68 103 -184 320 -246 460 -36 82 -458 1026 -492 1098
-14 32 -26 60 -26 62 0 2 -21 48 -46 102 -25 54 -57 124 -70 156 -14 32 -40
90 -58 130 -99 214 -176 398 -170 408 7 11 120 8 178 -5z m5586 -1860 c8 -2
33 -7 55 -10 22 -3 64 -10 93 -16 30 -7 59 -13 65 -14 84 -17 282 -97 392
-159 244 -138 466 -378 588 -637 117 -245 168 -504 161 -815 -2 -88 -5 -169
-8 -180 -2 -11 -7 -47 -10 -80 -4 -33 -11 -82 -16 -110 -5 -27 -12 -63 -15
-80 -7 -44 -44 -223 -130 -625 -41 -195 -77 -364 -79 -375 -2 -11 -14 -65 -26
-120 -12 -55 -24 -111 -26 -125 -3 -14 -16 -74 -29 -135 -13 -60 -38 -177 -55
-260 -47 -226 -121 -570 -125 -573 -9 -9 -74 36 -119 82 -49 49 -83 105 -105
174 -17 54 -6 226 23 357 15 66 28 129 30 140 3 11 23 108 46 215 89 418 199
937 208 983 21 102 1 162 -67 196 -66 34 -149 14 -188 -45 -9 -15 -40 -137
-69 -273 -29 -135 -62 -289 -73 -341 -11 -52 -57 -266 -101 -475 -44 -209 -87
-407 -94 -440 -15 -71 -24 -72 -98 -19 -60 44 -114 118 -139 190 -23 64 -27
199 -9 279 6 28 27 124 46 215 19 91 46 219 61 285 14 66 26 127 27 135 2 8 8
40 14 70 7 30 14 64 16 75 2 11 25 118 50 238 25 119 46 231 46 248 0 101
-105 167 -199 124 -74 -33 -74 -35 -181 -540 -18 -82 -34 -159 -36 -170 -7
-32 -25 -118 -30 -145 -3 -14 -10 -45 -15 -70 -24 -104 -90 -428 -95 -460 -9
-62 -10 -63 -52 -41 -54 27 -119 102 -153 176 -39 83 -46 191 -18 320 10 50
20 101 23 115 2 14 37 176 76 360 40 184 74 346 77 360 2 14 13 64 24 112 23
107 24 167 3 211 -29 61 -113 90 -178 63 -37 -15 -82 -68 -90 -106 -19 -87
-29 -121 -33 -117 -2 3 -6 38 -8 79 -16 299 -77 540 -200 793 -57 117 -175
309 -222 360 -10 11 -29 34 -41 50 -13 17 -64 72 -114 122 -104 106 -104 100
-5 164 201 130 467 230 692 259 50 7 97 13 105 15 24 4 313 -3 330 -9z m-1492
-482 c108 -82 239 -219 329 -344 130 -181 219 -371 273 -583 40 -158 41 -171
45 -377 5 -213 -12 -340 -65 -500 -148 -444 -470 -765 -965 -960 -188 -75
-428 -125 -765 -160 -58 -6 -123 -13 -145 -15 -22 -3 -107 -12 -190 -20 -82
-9 -166 -18 -185 -20 -19 -2 -60 -7 -90 -10 -30 -3 -71 -8 -90 -10 -34 -4 -66
-8 -195 -21 -33 -3 -71 -7 -85 -9 -14 -2 -56 -7 -95 -11 -38 -3 -78 -8 -88
-10 -10 -2 -53 -6 -95 -9 -42 -4 -88 -8 -102 -10 -14 -2 -50 -6 -80 -10 -30
-3 -75 -8 -100 -10 -25 -3 -63 -7 -85 -10 -22 -2 -85 -9 -140 -15 -55 -6 -120
-13 -145 -15 -25 -3 -72 -7 -104 -11 l-59 -6 5 39 c22 160 185 304 371 327 42
6 279 32 372 41 28 3 66 7 85 10 57 7 116 14 280 30 85 9 171 18 190 20 19 2
62 7 95 10 65 7 119 13 175 20 19 2 62 7 95 10 33 3 76 8 95 10 19 2 64 7 100
10 79 8 143 34 165 69 45 69 18 178 -52 211 -30 14 -53 16 -127 11 -50 -3
-100 -8 -111 -10 -11 -2 -56 -7 -100 -10 -44 -4 -87 -9 -95 -11 -8 -2 -46 -6
-85 -10 -38 -3 -83 -8 -100 -10 -16 -2 -57 -7 -90 -10 -33 -3 -116 -12 -185
-20 -69 -7 -152 -16 -185 -20 -33 -3 -76 -8 -95 -10 -19 -2 -60 -6 -90 -9 -30
-3 -95 -10 -145 -16 -49 -5 -119 -12 -155 -16 -36 -3 -69 -7 -75 -8 -22 -3 -6
78 29 149 41 83 89 131 176 175 77 38 169 56 380 75 36 3 75 7 85 9 11 2 52 7
90 10 39 4 86 9 105 11 19 2 58 7 85 9 28 3 88 10 135 16 47 5 114 12 150 15
35 3 78 8 95 10 16 2 57 7 90 10 69 8 97 11 180 20 74 8 138 35 159 67 44 68
17 172 -55 208 -37 19 -52 21 -123 16 -45 -4 -94 -9 -111 -11 -16 -2 -57 -7
-90 -10 -33 -3 -96 -10 -140 -15 -44 -5 -111 -12 -150 -15 -38 -4 -81 -8 -95
-10 -26 -4 -96 -12 -185 -21 -27 -3 -66 -7 -85 -9 -19 -2 -60 -6 -90 -9 -117
-12 -166 -17 -200 -21 -19 -2 -59 -7 -89 -10 -30 -4 -63 -8 -74 -11 -17 -3
-19 1 -14 33 9 53 52 135 97 186 69 76 191 129 333 142 34 3 73 8 87 10 14 2
59 7 100 10 41 4 82 8 90 10 8 2 53 7 100 10 47 3 92 8 100 10 8 2 44 7 80 10
36 3 81 8 100 10 19 2 67 7 105 10 39 4 81 8 95 10 14 2 52 7 85 10 157 15
198 31 232 91 28 52 24 112 -11 158 -36 48 -79 60 -183 51 -60 -5 -83 -4 -79
4 4 6 14 11 22 11 31 0 245 94 351 154 158 90 259 165 390 290 177 169 299
333 405 542 29 57 59 104 66 104 7 0 34 -16 60 -36z"/>
</g>
</svg>
